<svg id="Layer_1" data-name="Layer 1" xmlns="http://www.w3.org/2000/svg" viewBox="0 0 762.25 134.53"><defs><style>.cls-1{fill:#4dbc6a;}.cls-2{fill:#735594;}</style></defs><title>Number_Game_by_Playmaster</title><path class="cls-1" d="M0,51H39.31q15.21,0,24.1,7.61t8.9,22.11q0,14.51-8.9,22.11t-24.1,7.61H27.73v22.34H0ZM33.7,89.72q10.63,0,10.64-9t-10.64-9h-6v18Z"/><path class="cls-1" d="M77,51h27.73v58.5h30.54v23.28H77Z"/><path class="cls-1" d="M167.43,51h26.2l32.76,81.78H198L192.7,118.5H168.36l-5.26,14.27H134.67Zm19.18,47.15L180.53,79.3l-6.08,18.84Z"/><path class="cls-1" d="M243.12,101.53,213.52,51h29.6l13.93,25.86L272.14,51h29.48l-30.77,50.54v31.24H243.12Z"/><path class="cls-1" d="M303.38,51h24.45l20.71,43.29L369.25,51H393.7v81.78H368.08v-30.3L353,132.77H344.1L329,102.47v30.3H303.38Z"/><path class="cls-1" d="M429.39,51H455.6l32.76,81.78H459.93l-5.27-14.27H430.32l-5.26,14.27H396.63Zm19.19,47.15L442.49,79.3l-6.08,18.84Z"/><path class="cls-1" d="M499.94,132.89a47.25,47.25,0,0,1-13.34-4.45v-24.1A55.55,55.55,0,0,0,500.47,110,54.56,54.56,0,0,0,514,111.83a12.93,12.93,0,0,0,5-.7,2.33,2.33,0,0,0,1.52-2.22,4.19,4.19,0,0,0-2.34-3.57,97.62,97.62,0,0,0-9.94-4.86Q497,95.56,491.92,89.54a22,22,0,0,1-5.09-14.68A22.21,22.21,0,0,1,491,61.58a27.48,27.48,0,0,1,11.7-9.07A43,43,0,0,1,520,49.24a69.9,69.9,0,0,1,14.15,1.28,51.58,51.58,0,0,1,11.82,4V77.78a42.64,42.64,0,0,0-20.83-5.85q-8.3,0-8.3,3.63a3.4,3.4,0,0,0,1.93,2.93,51,51,0,0,0,7,3.15L530,83.4a58,58,0,0,1,12.75,7,19.86,19.86,0,0,1,6.32,7.84A28.26,28.26,0,0,1,551,109.26q0,11.82-8.66,18.54t-26.09,6.73A82.9,82.9,0,0,1,499.94,132.89Z"/><path class="cls-1" d="M570.72,74.27H549.78V51H619.4V74.27H598.45v58.5H570.72Z"/><path class="cls-1" d="M623.49,51h60.6V74.27H651.22v7.14H674.5v20.94H651.22v7.14h32.87v23.28h-60.6Z"/><path class="cls-1" d="M689.94,51h39.32q15.19,0,24.1,7.61t8.89,22.11q0,9.12-3.63,15.5a25.67,25.67,0,0,1-10.29,10l12.87,26.56h-28l-10.76-22.34H717.2v22.34H689.94Zm33.47,38.73q10.64,0,10.64-9t-10.64-9H717.2v18Z"/><path class="cls-2" d="M1.83,1.78h9.28L20.34,16.2V1.78H30.42v31H21.14L11.91,18.33V32.81H1.83Z"/><path class="cls-2" d="M40.21,30.94A9.71,9.71,0,0,1,38,24.24V11.5H48V23c0,1.83.79,2.75,2.35,2.75a3.26,3.26,0,0,0,3.11-2V11.5h10V32.81H53.77V31a9.87,9.87,0,0,1-3.11,1.8,10.83,10.83,0,0,1-3.73.64Q42.44,33.47,40.21,30.94Z"/><path class="cls-2" d="M71.17,11.5h9.19v1.77a8.79,8.79,0,0,1,6.34-2.44,9.47,9.47,0,0,1,3.67.6,6.14,6.14,0,0,1,2.37,1.8,10.16,10.16,0,0,1,3.11-1.75,10.68,10.68,0,0,1,3.68-.65c2.93,0,5,.76,6.22,2.27s1.82,3.68,1.82,6.52V32.81H98V21.09a3.44,3.44,0,0,0-.42-1.91,1.7,1.7,0,0,0-1.53-.62,3.26,3.26,0,0,0-1.69.44V32.81H84.84V20.6a2.43,2.43,0,0,0-.4-1.53,1.59,1.59,0,0,0-1.33-.51,2.67,2.67,0,0,0-2.4,1.68V32.81H71.17Z"/><path class="cls-2" d="M127.74,32.81a9.07,9.07,0,0,1-3-1.78v1.78h-9.63V0h10V12.83a8.35,8.35,0,0,1,2.78-1.44,11.49,11.49,0,0,1,3.57-.56,12.25,12.25,0,0,1,6,1.42,9.83,9.83,0,0,1,4,4,12.16,12.16,0,0,1,1.4,5.9,12.31,12.31,0,0,1-1.4,6,9.68,9.68,0,0,1-3.95,4,12.28,12.28,0,0,1-6,1.4A10.71,10.71,0,0,1,127.74,32.81Zm3.73-8a3.36,3.36,0,0,0,1-2.66,3.5,3.5,0,0,0-1-2.71,3.9,3.9,0,0,0-2.77-.93,4.32,4.32,0,0,0-2.13.53,3.51,3.51,0,0,0-1.47,1.46v3.2a3.51,3.51,0,0,0,1.47,1.46,4.32,4.32,0,0,0,2.13.54A4,4,0,0,0,131.47,24.86Z"/><path class="cls-2" d="M152.47,30.54a10,10,0,0,1-3.66-8.3,10.83,10.83,0,0,1,3.31-8.35q3.3-3.06,9.52-3.06a14.49,14.49,0,0,1,6.77,1.47,10,10,0,0,1,4.26,4A11.29,11.29,0,0,1,174.11,22v2.89h-15.8q1.29,2.31,5.81,2.31a29.47,29.47,0,0,0,4.38-.34,17.48,17.48,0,0,0,3.88-.95v6A21.55,21.55,0,0,1,168,33a32.07,32.07,0,0,1-5.31.44Q156.13,33.47,152.47,30.54ZM164.7,19.4q-.52-2.22-3.24-2.22t-3.15,2.22Z"/><path class="cls-2" d="M181,11.5h9.64v1.91A9.14,9.14,0,0,1,194,11.54a14.44,14.44,0,0,1,4.57-.71v7.73a15.48,15.48,0,0,0-4.73.68A5,5,0,0,0,191,21.18V32.81H181Z"/><path class="cls-2" d="M229.71,31.54a13.74,13.74,0,0,1-6-5.59,17.17,17.17,0,0,1-2.09-8.64,17.1,17.1,0,0,1,2.09-8.65,13.94,13.94,0,0,1,6-5.6,20.09,20.09,0,0,1,9.12-1.95,27.56,27.56,0,0,1,6,.58,17.22,17.22,0,0,1,4.84,1.86v9.86a12.37,12.37,0,0,0-4.33-2.05,22.85,22.85,0,0,0-5.61-.62,8.13,8.13,0,0,0-5.44,1.71,6,6,0,0,0-2,4.86A7.31,7.31,0,0,0,234,22.48c1.1,1.17,2.87,1.76,5.33,1.76a6.67,6.67,0,0,0,2.31-.36V21h-3.42v-6h12.65V30.85q-4.57,2.63-12,2.62A20.22,20.22,0,0,1,229.71,31.54Z"/><path class="cls-2" d="M259.3,31.63a6.29,6.29,0,0,1-2.49-5.39,6.47,6.47,0,0,1,2.42-5.46q2.41-1.87,7.17-1.87a16.32,16.32,0,0,1,3.11.33,17.51,17.51,0,0,1,2.8.78v-.35c0-.77-.49-1.38-1.47-1.82a9.32,9.32,0,0,0-3.86-.67,15.49,15.49,0,0,0-7.06,1.6V12.43a15.38,15.38,0,0,1,3.86-1.15,28.75,28.75,0,0,1,5.29-.45q6.39,0,9.81,2.35a7.63,7.63,0,0,1,3.41,6.66v13h-9.41V31.25a8.28,8.28,0,0,1-2.9,1.58,12.36,12.36,0,0,1-4,.64A10.94,10.94,0,0,1,259.3,31.63Zm11.65-4a3.62,3.62,0,0,0,1.36-.89V25.3a6.26,6.26,0,0,0-3.16-.84,2,2,0,0,0-1.46.49,1.63,1.63,0,0,0-.53,1.29,1.65,1.65,0,0,0,.51,1.24,2.08,2.08,0,0,0,1.48.49A4.63,4.63,0,0,0,271,27.61Z"/><path class="cls-2" d="M289.84,11.5H299v1.77a8.81,8.81,0,0,1,6.35-2.44,9.38,9.38,0,0,1,3.66.6,6.14,6.14,0,0,1,2.37,1.8,10.16,10.16,0,0,1,3.11-1.75,10.74,10.74,0,0,1,3.69-.65q4.4,0,6.21,2.27c1.21,1.5,1.82,3.68,1.82,6.52V32.81H316.7V21.09a3.44,3.44,0,0,0-.42-1.91,1.73,1.73,0,0,0-1.54-.62,3.19,3.19,0,0,0-1.68.44V32.81h-9.55V20.6a2.43,2.43,0,0,0-.4-1.53,1.58,1.58,0,0,0-1.33-.51,2.7,2.7,0,0,0-2.4,1.68V32.81h-9.54Z"/><path class="cls-2" d="M336.56,30.54a10,10,0,0,1-3.66-8.3,10.83,10.83,0,0,1,3.31-8.35q3.3-3.06,9.52-3.06a14.49,14.49,0,0,1,6.77,1.47,10,10,0,0,1,4.26,4A11.29,11.29,0,0,1,358.2,22v2.89H342.4q1.29,2.31,5.81,2.31a29.37,29.37,0,0,0,4.38-.34,17.48,17.48,0,0,0,3.88-.95v6A21.55,21.55,0,0,1,352.1,33a32.07,32.07,0,0,1-5.31.44Q340.22,33.47,336.56,30.54ZM348.79,19.4q-.53-2.22-3.24-2.22c-1.75,0-2.79.74-3.15,2.22Z"/><path class="cls-2" d="M395.69,32.81a9,9,0,0,1-3-1.78v1.78h-9.63V0h10V12.83a8.29,8.29,0,0,1,2.77-1.44,11.51,11.51,0,0,1,3.58-.56,12.28,12.28,0,0,1,6,1.42,9.8,9.8,0,0,1,4,4,12.05,12.05,0,0,1,1.4,5.9,12.2,12.2,0,0,1-1.4,6,9.68,9.68,0,0,1-3.95,4,12.22,12.22,0,0,1-6,1.4A10.71,10.71,0,0,1,395.69,32.81Zm3.73-8a3.36,3.36,0,0,0,1-2.66,3.5,3.5,0,0,0-1-2.71,3.92,3.92,0,0,0-2.77-.93,4.38,4.38,0,0,0-2.14.53,3.48,3.48,0,0,0-1.46,1.46v3.2a3.48,3.48,0,0,0,1.46,1.46,4.39,4.39,0,0,0,2.14.54A4,4,0,0,0,399.42,24.86Z"/><path class="cls-2" d="M418.82,41.33a10.14,10.14,0,0,1-2.69-.67V33.29a8,8,0,0,0,3.16.58,3.43,3.43,0,0,0,2-.53,3.48,3.48,0,0,0,1.13-1.6l.22-.62L413.43,11.5h10l4.53,12.16,4.31-12.16h10L434,32.81a15,15,0,0,1-4.51,6.63,11.33,11.33,0,0,1-7.17,2.16A24.09,24.09,0,0,1,418.82,41.33Z"/></svg>