<svg id="Layer_1" data-name="Layer 1" xmlns="http://www.w3.org/2000/svg" viewBox="0 0 305.95 103.9"><defs><style>.cls-1{fill:#6a3f9a;}.cls-2{fill:#6fcb8b;}.cls-3{fill:#fff;}</style></defs><title>Chukua tano</title><path class="cls-1" d="M76.25,66.6c-1.6-5.2-13.2-27.9-17.7-34.3-1.2-2.1-4.5-7-8.7-7.9a6.17,6.17,0,0,0-5.1,1,6.89,6.89,0,0,0-1.3,1.1c-.4-.6-.9-1.2-1.4-1.9C36.25,17.1,32,13.8,28,13.8a6,6,0,0,0-2.4.5,6.51,6.51,0,0,0-3.2,2.7l-.6,1.2-.2.5a2.92,2.92,0,0,0-.2.9,9.4,9.4,0,0,0-6-2.4,7.65,7.65,0,0,0-3,.6l-1.2.6-.2.1a7.35,7.35,0,0,0-3,5.6,4.05,4.05,0,0,0,0,1.1v.2a12.3,12.3,0,0,0,.9,3.4,1.7,1.7,0,0,0-.7-.1,7.34,7.34,0,0,0-5.6,1.4c-3.2,2.4-3.4,6.5-.5,12.1a106.68,106.68,0,0,0,7.9,12c1,1.4,2,2.7,2.3,3.2.8,1.3,1.9,3.1,3,4.8,2,3.1,4.2,6.6,5.3,8.7.2.5.5.9.7,1.4l-.2-.1a31.21,31.21,0,0,0-3.9-1.5,24.34,24.34,0,0,0-6.8-1.3,9.54,9.54,0,0,0-6,2.1l-.2.1a8.36,8.36,0,0,0-2.5,4.3l-.1.4c-.3,1.8-.4,7.8,9.2,10.8h.1c1,.4,1.9.8,2.6,1a26.86,26.86,0,0,1,5.3,3.9,53.75,53.75,0,0,0,12.7,8.6,38,38,0,0,0,15.6,3.3,31.45,31.45,0,0,0,14.4-3.3A27.36,27.36,0,0,0,76.25,66.6ZM12.65,83.3c-.1,0-.2-.1-.3-.1-6.5-1.9-6.8-5-6.6-6.2A3.65,3.65,0,0,1,7,74.9c2.2-1.7,4.1-1.5,9-.1a15.07,15.07,0,0,1,3.3,1.3.35.35,0,0,1,.2.1h.1c.7.4,2,1.2,2.6,1.6a8.65,8.65,0,0,1,2,1.5c1.2.9,1.7,1.3,2.8.4,1.7-1.4-1.3-8.2-2.6-10.7-1.2-2.3-3.5-5.9-5.5-9.1-1.1-1.8-2.2-3.4-2.9-4.7-.4-.7-1.4-2-2.5-3.6C7.65,44,2,35.7,5.05,33.4a3.35,3.35,0,0,1,2.4-.6c2.3.4,5.4,3,8.5,7.4,3.7,5,13.3,20.4,13.6,20.9a2,2,0,0,0,2.8.9c1.1-1,.4-2.4.2-3.1-.4-1.2-8.5-16.3-15.7-25.1-.3-.5-.7-1-1.1-1.6-1.5-2.1-3.5-4.9-3.6-7v-.8a3,3,0,0,1,1.2-2.4l.6-.3c3.1-1.4,5.9,2.1,8.7,5.4.6.7,1.2,1.5,1.8,2.1,2.9,3.3,15.6,22.5,16.1,23.5a2.1,2.1,0,0,0,2.3.9,1.74,1.74,0,0,0,.6-2.2c-.6-1.9-12-20.2-14.8-23.3-2.6-3.4-3.7-6.3-3.1-8.2l.4-.8a2.94,2.94,0,0,1,1.2-1c5-2,16.1,15,18.1,18.4l9.2,15.3a1.56,1.56,0,0,0,1.9.8c.6-.4.4-1.1.3-1.7-.2-.9-.7-1.7-4.3-8.5l-1.7-3.2c-.8-1.5-1.5-2.8-2.2-3.9-2.1-3.6-3-5.4-1.4-6.5a2,2,0,0,1,1.7-.3c2.3.5,4.9,4.1,6.1,6.1,4.2,5.9,15.8,28.6,17.2,33.3a23.3,23.3,0,0,1-12.5,29h0A27.81,27.81,0,0,1,47,99.8a35.08,35.08,0,0,1-13.9-3,48.61,48.61,0,0,1-11.7-8c-2.4-2.1-4.5-3.8-6.6-4.6a11.59,11.59,0,0,1-2-.8h0Z"/><path class="cls-1" d="M113.05,79.5a6.26,6.26,0,0,0-1.9-3.8l-.1-.1a8.1,8.1,0,0,0-5.2-2.2,21.89,21.89,0,0,0-6.6.9,29.07,29.07,0,0,0-3.9,1.2h-.1l-.4.2c-1.1.6-2.2,1.1-2.8,1.5H92a38.07,38.07,0,0,1,2.5-4.9c1.3-2.1,3.8-5.6,6-8.6,1.3-1.7,2.5-3.4,3.3-4.7.4-.6,1.4-1.8,2.6-3.2,6.6-7.8,14.8-17.6,9.3-22.3A6.13,6.13,0,0,0,112,32a8.62,8.62,0,0,0-4.9,1.3,13.93,13.93,0,0,0,2.9-6V26.2a5.83,5.83,0,0,0-2.2-4.9l-.2-.1a4.05,4.05,0,0,0-.9-.5,5.94,5.94,0,0,0-2.6-.7c-2.9-.2-5.4,1.5-7.6,3.7a8.31,8.31,0,0,0,.1-3.5l-.4-1.2-.1-.3a5.77,5.77,0,0,0-2.5-2.4,4.55,4.55,0,0,0-2-.5c-2.1-.1-5.7.6-12.9,8.4q-2,2.1-3.9,4.5a5.7,5.7,0,0,0-1.7-2.5,4.93,4.93,0,0,0-2.9-1.1c-2.3-.1-5.9,2-8.8,5.3l2.3,3.4s.6-.8.8-1c.8-1.1,4.4-5.4,6.4-3.7,1.1,1,.2,2.4-2,5.8-.4.6-2,2.6-2,2.6l2.4,5.3,4.2-6.5c3.6-6.1,14.5-18.9,18.5-17a1.56,1.56,0,0,1,.8.8l.3.8c.4,1.7-.9,4.5-3.5,7.5-2.8,2.6-15,19.4-15.8,21.6a2,2,0,0,0,3.7,1.7c.5-1,14.1-18,17.2-21,.7-.7,1.4-1.4,2-2.1,2.9-3,5.8-6.2,8.5-4.8a.76.76,0,0,0,.4.2,2.66,2.66,0,0,1,.9,2h0v.7c-.3,2-2.4,4.7-4,6.6a13.28,13.28,0,0,0-1.2,1.6c-8,8.6-17.7,24.8-18.2,26a2,2,0,0,0,1,2.6,2.08,2.08,0,0,0,2.8-.7c.3-.5,9.5-13.8,13.6-18.8,3.4-4.1,8.8-8.3,11-8.5a2.42,2.42,0,0,1,2,.6c2.8,2.4-5.7,12.4-9.7,17.2-1.3,1.6-2.3,2.8-2.9,3.5-.8,1.2-2,2.8-3.3,4.6-2.3,3.1-4.8,6.6-6.2,8.9-.6,1-5.6,9.4-3.3,11.5,1.5,1.4,2.4.7,3.6-.2a12.12,12.12,0,0,1,2.2-1.4,22.89,22.89,0,0,1,2.7-1.4.35.35,0,0,0,.2-.1,20.74,20.74,0,0,1,3.3-1c5.2-1.2,6.8-1.1,8.6.5a2.9,2.9,0,0,1,.8,1.8c.2,2.3-2.3,4.3-6.6,5.2a.91.91,0,0,0-.7.3h0a9.3,9.3,0,0,1-2.1.6c-2.3.7-4.6,2.4-7.2,4.4-3.4,2.5-7.2,5.4-12.3,7.3a32.16,32.16,0,0,1-9.3,2,13.72,13.72,0,0,1-2.7,2.2c-.8.5-1.6,1-2.5,1.5h.2a26.2,26.2,0,0,0,2.8.1,39.27,39.27,0,0,0,12.8-2.4c5.6-2.1,9.8-5.3,13.2-7.8,2.4-1.8,4.4-3.3,6.1-3.8,1-.3,1.8-.5,2.3-.7h0a.49.49,0,0,1,.3-.1h.1c9.1-2.1,9.4-7.5,9.3-9.1Z"/><rect class="cls-2" x="47.76" y="2.7" width="2.8" height="9.7" transform="translate(2.84 25.66) rotate(-30.08)"/><rect class="cls-2" x="57.65" width="2.8" height="9.7" transform="translate(-0.01 0.12) rotate(-0.11)"/><rect class="cls-2" x="64.14" y="6.1" width="9.7" height="2.8" transform="translate(28.08 63.55) rotate(-60.08)"/><path class="cls-1" d="M154.85,26.2a20.53,20.53,0,0,1-2,3.7,19.24,19.24,0,0,1-2.4,3.6.73.73,0,0,1-.6.2,3,3,0,0,1-.9-.6,14.51,14.51,0,0,0-1.9-1.2,7.31,7.31,0,0,0-3-.6,4.67,4.67,0,0,0-3.4,1.3,4.36,4.36,0,0,0,0,6.4,4.6,4.6,0,0,0,3.4,1.4,7.15,7.15,0,0,0,5.2-1.8c.2-.2.3-.3.4-.3s1,1,2.5,3.1a16.51,16.51,0,0,1,2.3,3.7,1.65,1.65,0,0,1-.5.9,11,11,0,0,1-4.7,3.1,15.4,15.4,0,0,1-5.6,1,15.7,15.7,0,0,1-10.9-4.1,13.58,13.58,0,0,1,0-20.2,15.34,15.34,0,0,1,10.9-4.2,14.87,14.87,0,0,1,10.5,3.8C154.65,25.7,154.85,25.9,154.85,26.2Z"/><path class="cls-1" d="M186.25,48.8a.53.53,0,0,1-.6.6c-.6,0-1.4,0-2.6-.1s-2-.1-2.6-.1-1.5,0-2.7.1-2,.1-2.6.1c-.4,0-.6-.2-.6-.7,0-.9.1-2.2.2-3.9s.19-3,.19-3.9c0-.5-.19-.8-.5-.9a16.48,16.48,0,0,0-2.89-.2,19,19,0,0,0-3,.2c-.3.1-.5.4-.5.9,0,.9,0,2.2.1,3.9s.1,3,.1,3.9c0,.5-.2.7-.6.7-.6,0-1.5,0-2.7-.1s-2.1-.1-2.7-.1a23.73,23.73,0,0,0-2.4.1c-1.1.1-1.9.1-2.4.1s-.7-.2-.7-.6c0-1.4.1-3.5.2-6.3s.2-4.9.2-6.3-.1-3.7-.2-6.7-.2-5.2-.2-6.7c0-.3.2-.4.5-.4.6,0,1.5,0,2.6.1s2,.1,2.6.1,1.6,0,2.8-.1,2.2-.1,2.8-.1c.2,0,.3.1.3.4a36.07,36.07,0,0,1-.3,3.9q-.3,2.7-.3,3.9a.37.37,0,0,0,.4.4,21.61,21.61,0,0,0,3.3.2,18.5,18.5,0,0,0,3.1-.2c.3-.1.5-.3.5-.8,0-.8-.1-2-.2-3.6s-.2-2.8-.2-3.6q0-.6.3-.6c.6,0,1.5,0,2.7.1s2.1.1,2.7.1,1.5,0,2.6-.1,2-.1,2.6-.1c.4,0,.5.2.5.5,0,1.5-.1,3.7-.2,6.7s-.2,5.2-.2,6.7.1,3.5.2,6.3A39.81,39.81,0,0,1,186.25,48.8Z"/><path class="cls-1" d="M245.85,48.2c0,.2-.1.4-.4.7s-.5.4-.7.4a11.56,11.56,0,0,1-1.7-.1,12.27,12.27,0,0,0-1.7-.1c-.8,0-1.9,0-3.4.1s-2.7.1-3.4.1c-.2,0-.4-.1-.4-.2s-.1-.3-.2-.5a31.6,31.6,0,0,0-1.6-3.1,29.3,29.3,0,0,1-1.7-3.1c-.3-.8-.7-1.6-1.1-2.5l-.1-.1c-.3,0-.4.3-.4,1,0,.9,0,2.2.1,3.9s.1,3,.1,3.9c0,.5-.2.7-.6.7-.6,0-1.5,0-2.7-.1s-2.1-.1-2.7-.1a23.73,23.73,0,0,0-2.4.1c-1.1.1-1.9.1-2.4.1s-.7-.2-.7-.6c0-1.4.1-3.5.2-6.3s.2-4.9.2-6.3-.1-3.7-.2-6.7-.2-5.2-.2-6.7c0-.3.2-.4.5-.4.6,0,1.5,0,2.6.1s2,.1,2.6.1,1.5,0,2.7-.1,2.1-.1,2.6-.1c.2,0,.3.1.3.4,0,.9,0,2.2-.1,4.1s-.1,3.2-.1,4.1a2.51,2.51,0,0,0,.1,1q.15.3.9.3c1.9.2,2.8-1.7,3.7-4.6.6-1.9,1.2-4.6,1.4-4.9s2.2-.5,5.5-.5c3.6,0,5.3.2,5.3.6a.37.37,0,0,1-.1.3c-.6.8-3.2,6.5-3.2,6.5-.1.5-3.3,6-3.3,6.2s.4,1,1.1,2.7c.5,1.1,1.5,2.7,2.6,4.9a48,48,0,0,0,3,4.8Z"/><path class="cls-1" d="M274.45,22.8c0,1.5-.1,3.7-.2,6.7s-.2,5.2-.2,6.7V40c0,3.6-.61,5.9-1.71,7.1-1.7,1.8-5.7,2.8-12.2,2.8a23.85,23.85,0,0,1-8.1-1,5.5,5.5,0,0,1-3.3-3.2,18.37,18.37,0,0,1-.6-5.6V36.3c0-1.5-.1-3.7-.2-6.7s-.2-5.2-.2-6.7c0-.3.2-.4.5-.4h10.2c.5,0,.7.2.7.4,0,1.5-.1,3.7-.2,6.7s-.2,5.2-.2,6.7v1.8c0,2.5.8,3.7,2.5,3.7,1.3,0,2-1,2-2.9,0-1.7-.1-4.4-.2-7.9s-.2-6.1-.2-7.9c0-.4.1-.6.4-.6a10.85,10.85,0,0,1,2.6,0c1.7,0,2.6.1,2.7.1.6,0,1.5,0,2.6-.1s2-.1,2.6-.1S274.45,22.5,274.45,22.8Z"/><path class="cls-1" d="M215.25,22.8c0,1.5-.1,3.7-.2,6.7s-.2,5.2-.2,6.7V40c0,3.6-.6,5.9-1.7,7.1-1.7,1.8-5.7,2.8-12.2,2.8a23.85,23.85,0,0,1-8.1-1,5.5,5.5,0,0,1-3.3-3.2,18.37,18.37,0,0,1-.6-5.6V36.3c0-1.5-.1-3.7-.2-6.7s-.2-5.2-.2-6.7c0-.3.2-.4.5-.4h10.2c.5,0,.7.2.7.4,0,1.5-.1,3.7-.2,6.7s-.2,5.2-.2,6.7v1.8c0,2.5.8,3.7,2.5,3.7,1.3,0,2-1,2-2.9,0-1.7-.1-4.4-.2-7.9s-.2-6.1-.2-7.9c0-.4.1-.6.4-.6a10.85,10.85,0,0,1,2.6,0c1.7,0,2.6.1,2.7.1.6,0,1.5,0,2.6-.1s2-.1,2.6-.1S215.25,22.5,215.25,22.8Z"/><path class="cls-1" d="M306,49.1c0,.2-.3.3-.8.3s-1.5,0-2.7-.1-2.1-.1-2.7-.1-1.5,0-2.7.1-2.11.1-2.71.1a.53.53,0,0,1-.6-.6v-.9a.74.74,0,0,0-.8-.8,50.18,50.18,0,0,0-5.7.2,1.39,1.39,0,0,0-1,1.2c-.1.6-.3.8-.7.8-.6,0-1.4,0-2.6-.1s-2-.1-2.6-.1-1.4,0-2.5.1-2,.1-2.5.1-.6-.2-.6-.5,3.3-9.1,9.8-26.2a1.63,1.63,0,0,1,.3-.6c.1-.1.3-.1.6-.1.5,0,3.8.1,4.3.1,2,0,4.4-.1,4.4-.1.2,0,.5.2.8.7.1.2.7,1.3,1.7,3.4.8,1.6,5,11.6,6.2,15.1s2.1,6,2.8,7.7C306,48.9,306,49,306,49.1Zm-13.9-12.4a2.83,2.83,0,0,0-1.8-2.5,3.35,3.35,0,0,0-1.8,2.5,1.73,1.73,0,0,0,.6,1.2,1.94,1.94,0,0,0,2.6,0A2.84,2.84,0,0,0,292.05,36.7Z"/><path class="cls-1" d="M175.25,74.8c-1.2-3.5-5.4-13.5-6.2-15.1-1-2.1-1.6-3.3-1.7-3.4-.3-.4-.6-.7-.8-.7s-2.5.1-4.5.1c-.5,0-3.8-.1-4.3-.1-.3,0-.5,0-.6.1a1.63,1.63,0,0,0-.3.6c-6.6,17.1-9.9,25.9-9.9,26.3s.2.5.6.5c.6,0,1.4,0,2.5-.1s2-.1,2.5-.1,1.4,0,2.6.1,2,.1,2.6.1c.3,0,.6-.3.7-.8a1.55,1.55,0,0,1,1-1.2,33,33,0,0,1,5.7-.2.74.74,0,0,1,.8.8v.9q.15.6.6.6c.6,0,1.5,0,2.7-.1s2.1-.1,2.7-.1,1.5,0,2.7.1,2.1.1,2.7.1.8-.1.8-.3,0-.1-.1-.3C177.35,80.9,176.35,78.3,175.25,74.8Zm-11.6-3.2a1.94,1.94,0,0,1-2.6,0,1.43,1.43,0,0,1-.6-1.2c0-.9.6-1.7,1.8-2.5a2.94,2.94,0,0,1,1.8,2.5A1.47,1.47,0,0,1,163.65,71.6Z"/><path class="cls-1" d="M144.55,68.3c0-.7,0-2.1.1-4.4l5.2.3c.3,0,.4-.1.4-.4s-.1-1.1-.2-1.9-.2-1.5-.2-1.9a17.86,17.86,0,0,1,.1-2.1,17.86,17.86,0,0,0,.1-2.1q0-.3-.6-.3c-.1,0-1,.1-2.7.2-3.4.3-5.7.4-7,.4a97,97,0,0,1-10.2-.4h-.3c-.2,0-.3.1-.3.2a40.38,40.38,0,0,0-.4,4.3c0,.2-.2,1-.4,2.2s-.4,1.8-.4,2a1.24,1.24,0,0,0,.3.2c2.4-.2,4.3-.3,5.5-.4.1,2.2.1,3.6.1,4.3,0,1.6-.1,3.9-.2,7.1s-.2,5.5-.2,7.1c0,.4.2.6.7.6s1.4,0,2.6-.1,2-.1,2.6-.1,1.5,0,2.7.1,2.1.1,2.7.1a.53.53,0,0,0,.6-.6c0-1.6-.1-3.9-.2-7.1A56.4,56.4,0,0,1,144.55,68.3Z"/><path class="cls-1" d="M209,56.1c-.6,0-1.5,0-2.7.1s-2.1.1-2.7.1-1.4,0-2.5-.1-1.9-.1-2.5-.1c-.3,0-.4.3-.4.8q0,1.5.3,4.5t.3,4.5a2.75,2.75,0,0,1-.2,1.3q-3.45-4.2-5.1-6.3c-2-2.6-3.1-4.1-3.4-4.4-.4-.6-.7-.8-.9-.8-.6,0-1.3.1-2.2.2-1.2.2-2,.3-2.2.3-2.1.2-3.4.3-4.1.3s-.9.1-.9.4c0,1.5.1,3.6.2,6.6s.2,5.1.2,6.6-.1,3.5-.2,6.3-.2,4.9-.2,6.3c0,.4.2.6.7.6a23.73,23.73,0,0,0,2.4-.1c1.1-.1,1.9-.1,2.4-.1a22,22,0,0,1,2.3.1,22,22,0,0,0,2.3.1c.4,0,.6-.2.6-.7,0-1,0-2.5-.1-4.5s-.1-3.5-.1-4.5q0-.6.3-.6c.4,0,3.1,3.2,8.2,9.7a1.21,1.21,0,0,0,.9.6,20.34,20.34,0,0,0,2.2-.1,19.71,19.71,0,0,1,2.1-.1,18.75,18.75,0,0,1,2.1.1,17.86,17.86,0,0,0,2.1.1c.5,0,.7-.1.7-.4V70.1c0-1.5.1-3.7.2-6.6s.2-5.2.2-6.6C209.35,56.2,209.15,56.1,209,56.1Z"/><ellipse class="cls-1" cx="228.45" cy="69.9" rx="16.5" ry="16.4"/><circle class="cls-3" cx="231.65" cy="66.5" r="10.8"/><polygon class="cls-1" points="233.54 59.2 231.04 56.6 224.04 63.7 228.44 70.6 231.44 68.3 228.65 64 233.54 59.2"/><path class="cls-1" d="M240.25,65.7a5.45,5.45,0,0,0-3.4-3.9,6.48,6.48,0,0,0-3.6.2,6.61,6.61,0,0,0-2.8,2.8,6.74,6.74,0,0,0-.4,1.2l1.4,2.2s.4-2.6,2.6-2.5a2.41,2.41,0,0,1,2.4,3.3,3,3,0,0,1-1.9,1.4,2.43,2.43,0,0,1-2-.6l-3.2,3.2s3,1.8,5.8.5C237.65,72.5,241,69,240.25,65.7Z"/></svg>