<svg id="Layer_1" data-name="Layer 1" xmlns="http://www.w3.org/2000/svg" viewBox="0 0 762.25 134.53"><defs><style>.cls-1{fill:#4dbc6a;}.cls-2{fill:#735594;}</style></defs><title>Artboard 1 copy</title><path class="cls-1" d="M0,51H39.31q15.21,0,24.1,7.61t8.9,22.11q0,14.5-8.9,22.11t-24.1,7.61H27.73v22.34H0ZM33.7,89.72q10.63,0,10.64-9t-10.64-9h-6v18Z"/><path class="cls-1" d="M77,51h27.73v58.5h30.54v23.28H77Z"/><path class="cls-1" d="M167.43,51h26.2l32.76,81.78H198l-5.3-14.28H168.36l-5.26,14.27H134.67Zm19.18,47.15L180.53,79.3l-6.08,18.84Z"/><path class="cls-1" d="M243.12,101.53,213.52,51h29.6l13.93,25.86L272.14,51h29.48l-30.77,50.54v31.24H243.12Z"/><path class="cls-1" d="M303.38,51h24.45l20.71,43.29L369.25,51H393.7v81.78H368.08v-30.3L353,132.77h-8.9L329,102.47v30.3H303.38Z"/><path class="cls-1" d="M429.39,51H455.6l32.76,81.78H459.93l-5.27-14.27H430.32l-5.26,14.27H396.63Zm19.19,47.15L442.49,79.3l-6.08,18.84Z"/><path class="cls-1" d="M499.94,132.89a47.32,47.32,0,0,1-13.34-4.45v-24.1A55.66,55.66,0,0,0,500.47,110,54.72,54.72,0,0,0,514,111.83a12.85,12.85,0,0,0,5-.7,2.33,2.33,0,0,0,1.52-2.22,4.19,4.19,0,0,0-2.34-3.57,97.14,97.14,0,0,0-9.94-4.86Q497,95.56,491.92,89.54a22,22,0,0,1-5.09-14.68A22.19,22.19,0,0,1,491,61.58a27.48,27.48,0,0,1,11.7-9.07A43.11,43.11,0,0,1,520,49.24a69.25,69.25,0,0,1,14.15,1.28,51.32,51.32,0,0,1,11.82,4V77.78a42.65,42.65,0,0,0-20.83-5.85q-8.29,0-8.3,3.63a3.39,3.39,0,0,0,1.93,2.93,51.11,51.11,0,0,0,7,3.15L530,83.4a57.94,57.94,0,0,1,12.75,7,19.88,19.88,0,0,1,6.32,7.84,28.23,28.23,0,0,1,1.93,11q0,11.82-8.66,18.54t-26.09,6.73A83.47,83.47,0,0,1,499.94,132.89Z"/><path class="cls-1" d="M570.72,74.27H549.78V51H619.4V74.27H598.45v58.5H570.72Z"/><path class="cls-1" d="M623.49,51h60.6V74.27H651.22v7.14H674.5v20.94H651.22v7.14h32.87v23.28h-60.6Z"/><path class="cls-1" d="M689.94,51h39.32q15.19,0,24.1,7.61t8.89,22.11q0,9.12-3.63,15.5a25.72,25.72,0,0,1-10.29,10l12.87,26.56h-28l-10.76-22.34H717.2v22.34H689.94Zm33.47,38.73q10.64,0,10.64-9t-10.64-9H717.2v18Z"/><path class="cls-2" d="M4.47,33.19a8.55,8.55,0,0,1-2.42-.73V25.54A6.64,6.64,0,0,0,3.76,26a12.23,12.23,0,0,0,2.1.18,3.78,3.78,0,0,0,2.75-.82,3.85,3.85,0,0,0,.8-2.73V1.84h7.84V23.55a10.24,10.24,0,0,1-2.48,7.24c-1.66,1.79-4.06,2.68-7.22,2.68A17.63,17.63,0,0,1,4.47,33.19Z"/><path class="cls-2" d="M26.44,30.55a10.13,10.13,0,0,1-3.56-8.29,11,11,0,0,1,3.17-8.33q3.16-3.06,9.15-3.06a13.78,13.78,0,0,1,6.53,1.45,9.81,9.81,0,0,1,4.12,3.94,11.41,11.41,0,0,1,1.4,5.65v2.88h-17a3.69,3.69,0,0,0,2.21,2.57,12,12,0,0,0,4.83.8,26.4,26.4,0,0,0,4.28-.36,18.62,18.62,0,0,0,3.79-1V32a20.23,20.23,0,0,1-4.1,1.08,29.87,29.87,0,0,1-5,.42Q30,33.47,26.44,30.55ZM39.89,19.91a3.75,3.75,0,0,0-1.41-2.7,5.41,5.41,0,0,0-3.42-1,5.23,5.23,0,0,0-3.36,1,3.82,3.82,0,0,0-1.42,2.68Z"/><path class="cls-2" d="M55.07,31a9.27,9.27,0,0,1-2.19-6.43V11.54h7.8V23.73c0,2.45,1.1,3.67,3.32,3.67a5.49,5.49,0,0,0,2.75-.7,5.69,5.69,0,0,0,2-2.09V11.54h7.79V32.81H69.05v-2.3a8.84,8.84,0,0,1-3.32,2.21,11.27,11.27,0,0,1-4.08.75C58.73,33.47,56.53,32.66,55.07,31Z"/><path class="cls-2" d="M105.65,32.08a9.83,9.83,0,0,1-4-3.95,11.88,11.88,0,0,1-1.42-5.91,12.08,12.08,0,0,1,1.42-5.92,10,10,0,0,1,4-4,12,12,0,0,1,5.92-1.42,12.63,12.63,0,0,1,4.07.63,9.06,9.06,0,0,1,3.19,1.77V.06h7.8V32.81h-7.53V30.68a10.56,10.56,0,0,1-7.53,2.79A12.19,12.19,0,0,1,105.65,32.08Zm11.13-5.54a5.1,5.1,0,0,0,2-2.46V20.31a5.14,5.14,0,0,0-2-2.46,5.84,5.84,0,0,0-3.19-.9,5.33,5.33,0,0,0-3.86,1.41,5.15,5.15,0,0,0-1.46,3.86,5.06,5.06,0,0,0,1.46,3.83,5.37,5.37,0,0,0,3.86,1.4A5.77,5.77,0,0,0,116.78,26.54Z"/><path class="cls-2" d="M136,30.55a10.11,10.11,0,0,1-3.57-8.29,11.05,11.05,0,0,1,3.17-8.33q3.17-3.06,9.15-3.06a13.85,13.85,0,0,1,6.54,1.45,9.87,9.87,0,0,1,4.12,3.94,11.4,11.4,0,0,1,1.39,5.65v2.88h-17a3.73,3.73,0,0,0,2.22,2.57,12,12,0,0,0,4.83.8,26.49,26.49,0,0,0,4.28-.36,18.51,18.51,0,0,0,3.78-1V32a20.3,20.3,0,0,1-4.09,1.08,29.87,29.87,0,0,1-5,.42Q139.6,33.47,136,30.55Zm13.45-10.64a3.76,3.76,0,0,0-1.42-2.7,5.38,5.38,0,0,0-3.41-1,5.26,5.26,0,0,0-3.37,1,3.82,3.82,0,0,0-1.42,2.68Z"/><path class="cls-2" d="M180.5,1.84h7.75l11.39,18.43V1.84h7.84v31h-7.71L188.34,14.33V32.81H180.5Z"/><path class="cls-2" d="M219.54,32a11,11,0,0,1-4.59-4,10.73,10.73,0,0,1-1.62-5.88A10.72,10.72,0,0,1,215,16.3a11,11,0,0,1,4.59-4,17.19,17.19,0,0,1,13.82,0,11,11,0,0,1,4.59,4,10.72,10.72,0,0,1,1.62,5.87A10.73,10.73,0,0,1,238,28.05a11,11,0,0,1-4.59,4,17.41,17.41,0,0,1-13.82,0Zm10.65-6a5.19,5.19,0,0,0,1.4-3.84,5.18,5.18,0,0,0-1.4-3.83,5.73,5.73,0,0,0-7.48,0,5.14,5.14,0,0,0-1.4,3.83,5.15,5.15,0,0,0,1.4,3.84,5.73,5.73,0,0,0,7.48,0Z"/><path class="cls-2" d="M245.42,11.54h7.22v2.3a9.45,9.45,0,0,1,3.06-2.19,9.82,9.82,0,0,1,7.51-.07,5.72,5.72,0,0,1,2.32,2.13,9.36,9.36,0,0,1,3.24-2.08,10.43,10.43,0,0,1,3.85-.76c2.81,0,4.8.72,6,2.15a9.53,9.53,0,0,1,1.77,6.19v13.6h-7.45V20.31a4,4,0,0,0-.66-2.57,2.74,2.74,0,0,0-2.22-.79,4.1,4.1,0,0,0-3.23,1.41c0,.51,0,1.27,0,2.31V32.81h-7.44V20a3.74,3.74,0,0,0-.58-2.35,2.5,2.5,0,0,0-2-.7q-2.25,0-3.9,2.52V32.81h-7.48Z"/><path class="cls-2" d="M294.43,30.68v2.13h-7.54V.06h7.8V13.27a9.49,9.49,0,0,1,3.21-1.75,12.74,12.74,0,0,1,4.06-.65,12,12,0,0,1,5.91,1.42,10.08,10.08,0,0,1,4,4,12.08,12.08,0,0,1,1.42,5.92,11.88,11.88,0,0,1-1.42,5.91,9.92,9.92,0,0,1-4,3.95A12.15,12.15,0,0,1,302,33.47,10.55,10.55,0,0,1,294.43,30.68Zm9.35-4.63a5.06,5.06,0,0,0,1.46-3.83,5.15,5.15,0,0,0-1.46-3.86A5.33,5.33,0,0,0,299.92,17a5.82,5.82,0,0,0-3.19.9,5.11,5.11,0,0,0-2,2.46v3.77a5.06,5.06,0,0,0,2,2.46,5.74,5.74,0,0,0,3.19.91A5.37,5.37,0,0,0,303.78,26.05Z"/><path class="cls-2" d="M319.11,11.54h7.53V14.2a8,8,0,0,1,3.5-2.2,15.58,15.58,0,0,1,5-.77v6a14.62,14.62,0,0,0-5.16.84,5.35,5.35,0,0,0-3.08,2.53V32.81h-7.8Z"/><path class="cls-2" d="M342.79,30.55c-2.38-1.95-3.56-4.71-3.56-8.29a11,11,0,0,1,3.16-8.33q3.18-3.06,9.15-3.06a13.85,13.85,0,0,1,6.54,1.45,9.81,9.81,0,0,1,4.12,3.94,11.41,11.41,0,0,1,1.4,5.65v2.88h-17a3.69,3.69,0,0,0,2.21,2.57,12,12,0,0,0,4.83.8A26.4,26.4,0,0,0,358,27.8a18.79,18.79,0,0,0,3.79-1V32a20.41,20.41,0,0,1-4.1,1.08,29.87,29.87,0,0,1-5,.42Q346.36,33.47,342.79,30.55Zm13.45-10.64a3.76,3.76,0,0,0-1.42-2.7,5.36,5.36,0,0,0-3.41-1,5.26,5.26,0,0,0-3.37,1,3.8,3.8,0,0,0-1.41,2.68Z"/><path class="cls-2" d="M373.26,33a14,14,0,0,1-4.43-1.43V25.81a17.77,17.77,0,0,0,4.36,1.75,18,18,0,0,0,4.68.69,8.18,8.18,0,0,0,2.26-.23.86.86,0,0,0,.7-.88,1,1,0,0,0-.46-.87,6.79,6.79,0,0,0-1.68-.71c-.82-.25-1.75-.52-2.82-.81a23.12,23.12,0,0,1-4.25-1.64A5.84,5.84,0,0,1,369.31,21a6.37,6.37,0,0,1-.75-3.24,5.68,5.68,0,0,1,2.73-5.16,13.94,13.94,0,0,1,7.46-1.71,26.15,26.15,0,0,1,4.85.49,11.84,11.84,0,0,1,3.84,1.29v5.63a11.68,11.68,0,0,0-3.53-1.47,16.33,16.33,0,0,0-4.09-.57,7.29,7.29,0,0,0-2.35.29q-.84.28-.84,1t.84,1a22.87,22.87,0,0,0,3,.89c.94.23,1.34.34,1.2.31a17.29,17.29,0,0,1,4.38,1.68,5.52,5.52,0,0,1,2.2,2.2,7.16,7.16,0,0,1,.64,3.21,5.58,5.58,0,0,1-2.64,4.85c-1.76,1.2-4.3,1.79-7.64,1.79A29.84,29.84,0,0,1,373.26,33Z"/><path class="cls-2" d="M412.56,11.54h7.53v2.13a10.58,10.58,0,0,1,7.54-2.8,12.15,12.15,0,0,1,5.89,1.4,10,10,0,0,1,4,3.94,12,12,0,0,1,1.42,5.92,12.08,12.08,0,0,1-1.42,5.92,10.08,10.08,0,0,1-4,4,12,12,0,0,1-5.91,1.41,12.74,12.74,0,0,1-4.06-.64,9.49,9.49,0,0,1-3.21-1.75V42.51h-7.8ZM429.44,26a5.12,5.12,0,0,0,1.47-3.86,5,5,0,0,0-1.47-3.83,5.34,5.34,0,0,0-3.85-1.4,5.83,5.83,0,0,0-3.19.91,5.11,5.11,0,0,0-2,2.46V24a5.11,5.11,0,0,0,2,2.46,5.82,5.82,0,0,0,3.19.9A5.31,5.31,0,0,0,429.44,26Z"/><path class="cls-2" d="M445.24,31.55a6.46,6.46,0,0,1-2.46-5.39,6.69,6.69,0,0,1,2.37-5.51q2.37-1.93,6.81-1.93a15.59,15.59,0,0,1,3.45.38,12.91,12.91,0,0,1,3,1v-.44c0-2.28-1.86-3.41-5.58-3.41a16.79,16.79,0,0,0-7.14,1.5V12.38a15.72,15.72,0,0,1,3.73-1.08,26.56,26.56,0,0,1,4.78-.43c4,0,6.95.8,9,2.38a7.93,7.93,0,0,1,3,6.62V32.81h-7.31V31a8.42,8.42,0,0,1-3,1.82,12.21,12.21,0,0,1-4.17.66A10.19,10.19,0,0,1,445.24,31.55Zm11.32-3.42a4.3,4.3,0,0,0,1.82-1.43V24.83A7.63,7.63,0,0,0,454,23.55a3.78,3.78,0,0,0-2.39.66,2.33,2.33,0,0,0-.85,1.95,2.27,2.27,0,0,0,.82,1.86,3.67,3.67,0,0,0,2.38.67A6,6,0,0,0,456.56,28.13Z"/><path class="cls-2" d="M472.69,11.54h7.54V14.2a7.9,7.9,0,0,1,3.5-2.2,15.49,15.49,0,0,1,5-.77v6a14.67,14.67,0,0,0-5.17.84,5.38,5.38,0,0,0-3.08,2.53V32.81h-7.8Z"/></svg>