<svg id="Layer_1" data-name="Layer 1" xmlns="http://www.w3.org/2000/svg" viewBox="0 0 762.25 134.53"><defs><style>.cls-1{fill:#4dbc6a;}.cls-2{fill:#735594;}</style></defs><title>Artboard 1</title><path class="cls-1" d="M0,51H39.31q15.21,0,24.1,7.61t8.9,22.11q0,14.5-8.9,22.11t-24.1,7.61H27.73v22.34H0ZM33.7,89.72q10.63,0,10.64-9t-10.64-9h-6v18Z"/><path class="cls-1" d="M77,51h27.73v58.5h30.54v23.28H77Z"/><path class="cls-1" d="M167.43,51h26.2l32.76,81.78H198l-5.3-14.28H168.36l-5.26,14.27H134.67Zm19.18,47.15L180.53,79.3l-6.08,18.84Z"/><path class="cls-1" d="M243.12,101.53,213.52,51h29.6l13.93,25.86L272.14,51h29.48l-30.77,50.54v31.24H243.12Z"/><path class="cls-1" d="M303.38,51h24.45l20.71,43.29L369.25,51H393.7v81.78H368.08v-30.3L353,132.77h-8.9L329,102.47v30.3H303.38Z"/><path class="cls-1" d="M429.39,51H455.6l32.76,81.78H459.93l-5.27-14.27H430.32l-5.26,14.27H396.63Zm19.19,47.15L442.49,79.3l-6.08,18.84Z"/><path class="cls-1" d="M499.94,132.89a47.32,47.32,0,0,1-13.34-4.45v-24.1A55.66,55.66,0,0,0,500.47,110,54.72,54.72,0,0,0,514,111.83a12.85,12.85,0,0,0,5-.7,2.33,2.33,0,0,0,1.52-2.22,4.19,4.19,0,0,0-2.34-3.57,97.14,97.14,0,0,0-9.94-4.86Q497,95.56,491.92,89.54a22,22,0,0,1-5.09-14.68A22.19,22.19,0,0,1,491,61.58a27.48,27.48,0,0,1,11.7-9.07A43.11,43.11,0,0,1,520,49.24a69.25,69.25,0,0,1,14.15,1.28,51.32,51.32,0,0,1,11.82,4V77.78a42.65,42.65,0,0,0-20.83-5.85q-8.29,0-8.3,3.63a3.39,3.39,0,0,0,1.93,2.93,51.11,51.11,0,0,0,7,3.15L530,83.4a57.94,57.94,0,0,1,12.75,7,19.88,19.88,0,0,1,6.32,7.84,28.23,28.23,0,0,1,1.93,11q0,11.82-8.66,18.54t-26.09,6.73A83.47,83.47,0,0,1,499.94,132.89Z"/><path class="cls-1" d="M570.72,74.27H549.78V51H619.4V74.27H598.45v58.5H570.72Z"/><path class="cls-1" d="M623.49,51h60.6V74.27H651.22v7.14H674.5v20.94H651.22v7.14h32.87v23.28h-60.6Z"/><path class="cls-1" d="M689.94,51h39.32q15.19,0,24.1,7.61t8.89,22.11q0,9.12-3.63,15.5a25.72,25.72,0,0,1-10.29,10l12.87,26.56h-28l-10.76-22.34H717.2v22.34H689.94Zm33.47,38.73q10.64,0,10.64-9t-10.64-9H717.2v18Z"/><path class="cls-2" d="M3.82,1.84h7.54l9,19.18,9-19.18h7.49v31H29.48V17.26l-7.4,15.55H18.54L11.18,17.26V32.81H3.82Z"/><path class="cls-2" d="M44.73,7.55a3.88,3.88,0,0,1-1.2-2.92,3.93,3.93,0,0,1,1.2-2.91,4,4,0,0,1,3-1.17,4.09,4.09,0,0,1,3,1.17,3.91,3.91,0,0,1,1.22,2.91,3.87,3.87,0,0,1-1.22,2.9,4.34,4.34,0,0,1-5.91,0Zm-.94,4h7.8V32.81h-7.8Z"/><path class="cls-2" d="M61.12,30.55q-3.4-2.93-3.41-8.33c0-3.6,1.14-6.4,3.43-8.38s5.39-3,9.29-3a23,23,0,0,1,4.89.5,12.3,12.3,0,0,1,3.79,1.44V18.9A11.92,11.92,0,0,0,72,17a7.26,7.26,0,0,0-4.54,1.3,4.7,4.7,0,0,0-1.71,4,4.66,4.66,0,0,0,1.68,4,7.39,7.39,0,0,0,4.52,1.26,13.39,13.39,0,0,0,7.45-2v6a17.29,17.29,0,0,1-9,2Q64.53,33.47,61.12,30.55Z"/><path class="cls-2" d="M85.23.06H93V13.71a9.45,9.45,0,0,1,3.25-2.13,10.76,10.76,0,0,1,3.88-.7q4.47,0,6.62,2.32a8.92,8.92,0,0,1,2.15,6.32V32.81h-7.8V20.54c0-2.4-1.09-3.59-3.27-3.59a5.66,5.66,0,0,0-2.75.68A5.55,5.55,0,0,0,93,19.74V32.81h-7.8Z"/><path class="cls-2" d="M118.13,30.55a10.11,10.11,0,0,1-3.57-8.29,11.05,11.05,0,0,1,3.17-8.33q3.17-3.06,9.15-3a13.85,13.85,0,0,1,6.54,1.44,9.87,9.87,0,0,1,4.12,3.94,11.4,11.4,0,0,1,1.39,5.65v2.88H122a3.73,3.73,0,0,0,2.22,2.57,12,12,0,0,0,4.83.8,26.28,26.28,0,0,0,4.27-.36,18.45,18.45,0,0,0,3.79-1V32a20.23,20.23,0,0,1-4.1,1.08,29.78,29.78,0,0,1-5,.42Q121.7,33.47,118.13,30.55Zm13.45-10.63a3.76,3.76,0,0,0-1.42-2.71,5.4,5.4,0,0,0-3.41-1,5.26,5.26,0,0,0-3.37,1A3.82,3.82,0,0,0,122,19.92Z"/><path class="cls-2" d="M143.9,28.56,154,17h-9.84V11.54h20.12v4.25l-10,11.61h10.36v5.41H143.9Z"/><path class="cls-2" d="M173.81,32a10.92,10.92,0,0,1-4.59-4,10.73,10.73,0,0,1-1.62-5.88,10.72,10.72,0,0,1,1.62-5.87,11,11,0,0,1,4.59-4,17.3,17.3,0,0,1,13.82,0,11,11,0,0,1,4.59,4,10.72,10.72,0,0,1,1.62,5.87,10.73,10.73,0,0,1-1.62,5.88,10.92,10.92,0,0,1-4.59,4,17.3,17.3,0,0,1-13.82,0Zm10.65-6a5.15,5.15,0,0,0,1.4-3.84,5.14,5.14,0,0,0-1.4-3.83,5.73,5.73,0,0,0-7.48,0,5.14,5.14,0,0,0-1.4,3.83A5.15,5.15,0,0,0,177,26a5.73,5.73,0,0,0,7.48,0Z"/><path class="cls-2" d="M221.09,41.38a8,8,0,0,1-2.31-.55V35a7.73,7.73,0,0,0,2.93.53,3.68,3.68,0,0,0,2.28-.64,4.39,4.39,0,0,0,1.31-2l.53-1.42-9.22-19.94h7.8L230,25.37l5.23-13.83H243l-8.77,22.25a13.65,13.65,0,0,1-4,5.89,9.67,9.67,0,0,1-6.18,1.9A22,22,0,0,1,221.09,41.38Z"/><path class="cls-2" d="M246.64,31.55a6.46,6.46,0,0,1-2.46-5.39,6.69,6.69,0,0,1,2.37-5.51c1.58-1.29,3.84-1.93,6.8-1.93a15.74,15.74,0,0,1,3.46.38,12.66,12.66,0,0,1,3,1v-.44c0-2.28-1.86-3.41-5.58-3.41a16.71,16.71,0,0,0-7.13,1.5V12.38a15.48,15.48,0,0,1,3.72-1.08,26.57,26.57,0,0,1,4.78-.42q5.94,0,9,2.37a7.92,7.92,0,0,1,3,6.62V32.81h-7.31V31a8.42,8.42,0,0,1-3,1.82,12.17,12.17,0,0,1-4.17.66A10.14,10.14,0,0,1,246.64,31.55ZM258,28.14a4.3,4.3,0,0,0,1.81-1.45V24.83a7.61,7.61,0,0,0-4.34-1.28,3.8,3.8,0,0,0-2.39.66,2.36,2.36,0,0,0-.84,1.95A2.24,2.24,0,0,0,253,28a3.62,3.62,0,0,0,2.37.67A6.05,6.05,0,0,0,258,28.14Z"/><path class="cls-2" d="M291.9,1.84h7.76L311,20.27V1.84h7.85v31h-7.71L299.74,14.33V32.81H291.9Z"/><path class="cls-2" d="M327.2,31.55a6.46,6.46,0,0,1-2.46-5.39,6.69,6.69,0,0,1,2.37-5.51c1.58-1.29,3.84-1.93,6.8-1.93a15.74,15.74,0,0,1,3.46.38,12.66,12.66,0,0,1,3,1v-.44c0-2.28-1.86-3.41-5.58-3.41a16.71,16.71,0,0,0-7.13,1.5V12.38a15.48,15.48,0,0,1,3.72-1.08,26.57,26.57,0,0,1,4.78-.42q5.94,0,9,2.37a7.92,7.92,0,0,1,3,6.62V32.81h-7.31V31a8.42,8.42,0,0,1-3,1.82,12.17,12.17,0,0,1-4.17.66A10.14,10.14,0,0,1,327.2,31.55Zm11.32-3.41a4.3,4.3,0,0,0,1.81-1.45V24.83A7.61,7.61,0,0,0,336,23.55a3.8,3.8,0,0,0-2.39.66,2.36,2.36,0,0,0-.84,1.95,2.24,2.24,0,0,0,.82,1.86,3.62,3.62,0,0,0,2.37.67A6.05,6.05,0,0,0,338.52,28.14Z"/><path class="cls-2" d="M354.65,11.54h7.22v2.3a9.56,9.56,0,0,1,3.06-2.19,9.95,9.95,0,0,1,7.51-.07,5.72,5.72,0,0,1,2.32,2.13A9.36,9.36,0,0,1,378,11.63a10.46,10.46,0,0,1,3.85-.75q4.22,0,6,2.14a9.53,9.53,0,0,1,1.77,6.19v13.6h-7.44V20.31a4,4,0,0,0-.67-2.57,2.74,2.74,0,0,0-2.22-.79,4.11,4.11,0,0,0-3.23,1.41c0,.51,0,1.27,0,2.31V32.81h-7.44V20a3.74,3.74,0,0,0-.58-2.35,2.49,2.49,0,0,0-2-.7q-2.27,0-3.9,2.52V32.81h-7.49Z"/><path class="cls-2" d="M403.66,30.68v2.13h-7.54V.06h7.8V13.27a9.44,9.44,0,0,1,3.22-1.75,12.63,12.63,0,0,1,4.05-.64,12,12,0,0,1,5.92,1.41,10.05,10.05,0,0,1,4,4,12.08,12.08,0,0,1,1.42,5.92,12,12,0,0,1-1.42,5.92,9.83,9.83,0,0,1-4,3.94,12.12,12.12,0,0,1-5.89,1.39A10.56,10.56,0,0,1,403.66,30.68ZM413,26.05a5.06,5.06,0,0,0,1.46-3.83A5.15,5.15,0,0,0,413,18.36,5.33,5.33,0,0,0,409.15,17a5.84,5.84,0,0,0-3.19.9,5.22,5.22,0,0,0-2,2.46v3.77a5.22,5.22,0,0,0,2,2.46,5.77,5.77,0,0,0,3.19.91A5.37,5.37,0,0,0,413,26.05Z"/><path class="cls-2" d="M428.8,31.55a6.49,6.49,0,0,1-2.46-5.39,6.66,6.66,0,0,1,2.38-5.51c1.58-1.29,3.84-1.93,6.8-1.93a15.59,15.59,0,0,1,3.45.38,12.59,12.59,0,0,1,3,1v-.44c0-2.28-1.86-3.41-5.58-3.41a16.71,16.71,0,0,0-7.13,1.5V12.38A15.48,15.48,0,0,1,433,11.3a26.57,26.57,0,0,1,4.78-.42q5.94,0,9,2.37a7.92,7.92,0,0,1,3,6.62V32.81h-7.31V31a8.42,8.42,0,0,1-3,1.82,12.17,12.17,0,0,1-4.17.66A10.19,10.19,0,0,1,428.8,31.55Zm11.33-3.41a4.37,4.37,0,0,0,1.81-1.45V24.83a7.63,7.63,0,0,0-4.34-1.28,3.8,3.8,0,0,0-2.39.66,2.36,2.36,0,0,0-.84,1.95,2.24,2.24,0,0,0,.82,1.86,3.62,3.62,0,0,0,2.37.67A6.05,6.05,0,0,0,440.13,28.14Z"/><path class="cls-2" d="M474.07.06h7.8v20l7-8.55h8.95l-8.46,10.28,9.61,11h-9l-8.15-9.35v9.35h-7.8Z"/><path class="cls-2" d="M505.69,31a9.23,9.23,0,0,1-2.2-6.43V11.54h7.8V23.73q0,3.68,3.33,3.67a5.33,5.33,0,0,0,2.74-.71,5.44,5.44,0,0,0,2-2.08V11.54h7.8V32.81h-7.53v-2.3a9,9,0,0,1-3.33,2.21,11.21,11.21,0,0,1-4.07.75Q507.88,33.47,505.69,31Z"/><path class="cls-2" d="M537.19,31.28a8.53,8.53,0,0,1-2-6V17h-3V11.54h3V5.16H543v6.38h4.87V17H543v7.26a3.78,3.78,0,0,0,.64,2.48,2.86,2.86,0,0,0,2.28.76,6,6,0,0,0,2.92-.8v5.81a10.3,10.3,0,0,1-2.45.77,18.33,18.33,0,0,1-3.22.24A7.71,7.71,0,0,1,537.19,31.28Z"/><path class="cls-2" d="M558.88,32a10.89,10.89,0,0,1-4.58-4,10.73,10.73,0,0,1-1.62-5.88,10.72,10.72,0,0,1,1.62-5.87,11,11,0,0,1,4.58-4,17.32,17.32,0,0,1,13.83,0,11,11,0,0,1,4.59,4,10.8,10.8,0,0,1,1.61,5.87,10.81,10.81,0,0,1-1.61,5.88,10.92,10.92,0,0,1-4.59,4,17.32,17.32,0,0,1-13.83,0Zm10.66-6a5.19,5.19,0,0,0,1.4-3.84,5.18,5.18,0,0,0-1.4-3.83,5.74,5.74,0,0,0-7.49,0,5.18,5.18,0,0,0-1.39,3.83A5.19,5.19,0,0,0,562.05,26a5.74,5.74,0,0,0,7.49,0Z"/><path class="cls-2" d="M584.76.06h7.8v20l7-8.55h9l-8.46,10.28,9.62,11h-9l-8.15-9.35v9.35h-7.8Z"/><path class="cls-2" d="M614.65,31.55a6.46,6.46,0,0,1-2.46-5.39,6.69,6.69,0,0,1,2.37-5.51q2.37-1.93,6.8-1.93a15.61,15.61,0,0,1,3.46.38,12.91,12.91,0,0,1,3,1v-.44c0-2.28-1.86-3.41-5.58-3.41a16.79,16.79,0,0,0-7.14,1.5V12.38a15.76,15.76,0,0,1,3.72-1.08,26.76,26.76,0,0,1,4.79-.42q5.94,0,9,2.37a7.9,7.9,0,0,1,3,6.62V32.81h-7.31V31a8.38,8.38,0,0,1-3,1.82,12.15,12.15,0,0,1-4.16.66A10.19,10.19,0,0,1,614.65,31.55ZM626,28.14a4.34,4.34,0,0,0,1.82-1.45V24.83a7.63,7.63,0,0,0-4.34-1.28,3.83,3.83,0,0,0-2.4.66,2.36,2.36,0,0,0-.84,1.95A2.27,2.27,0,0,0,621,28a3.66,3.66,0,0,0,2.37.67A6,6,0,0,0,626,28.14Z"/></svg>