<svg id="Layer_1" data-name="Layer 1" xmlns="http://www.w3.org/2000/svg" xmlns:xlink="http://www.w3.org/1999/xlink" viewBox="0 0 310 72"><defs><style>.cls-1{fill:url(#linear-gradient);}.cls-2{fill:url(#linear-gradient-2);}.cls-3{fill:url(#linear-gradient-3);}.cls-4{fill:url(#linear-gradient-4);}.cls-5{fill:#7d3611;}.cls-6{fill:url(#linear-gradient-5);}.cls-7{fill:url(#linear-gradient-6);}.cls-8{fill:#b56d19;}.cls-9{fill:url(#linear-gradient-7);}.cls-10{fill:url(#linear-gradient-8);}.cls-11{fill:url(#linear-gradient-9);}.cls-12{fill:url(#linear-gradient-10);}.cls-13{fill:#ffe94f;}.cls-14{fill:url(#linear-gradient-11);}.cls-15{fill:url(#linear-gradient-12);}</style><linearGradient id="linear-gradient" x1="200.78" y1="36.38" x2="251.02" y2="36.38" gradientUnits="userSpaceOnUse"><stop offset="0" stop-color="#a45f12"/><stop offset="0.38" stop-color="#a15d11"/><stop offset="0.61" stop-color="#99540f"/><stop offset="0.8" stop-color="#8b460b"/><stop offset="0.96" stop-color="#773306"/><stop offset="1" stop-color="#712d04"/></linearGradient><linearGradient id="linear-gradient-2" x1="54.1" y1="39.91" x2="5.64" y2="39.91" gradientUnits="userSpaceOnUse"><stop offset="0" stop-color="#712d04"/><stop offset="1" stop-color="#a45f12"/></linearGradient><linearGradient id="linear-gradient-3" x1="75.97" y1="34.83" x2="68.97" y2="34.83" xlink:href="#linear-gradient-2"/><linearGradient id="linear-gradient-4" x1="112.62" y1="33.34" x2="107.2" y2="33.34" xlink:href="#linear-gradient-2"/><linearGradient id="linear-gradient-5" x1="140.54" y1="32.8" x2="145.53" y2="32.8" xlink:href="#linear-gradient-2"/><linearGradient id="linear-gradient-6" x1="267.33" y1="28.26" x2="273.89" y2="28.26" gradientTransform="translate(499.28 173.92) rotate(-155.61)" gradientUnits="userSpaceOnUse"><stop offset="0" stop-color="#a45f12"/><stop offset="1" stop-color="#712d04"/></linearGradient><linearGradient id="linear-gradient-7" x1="178.19" y1="24.31" x2="183.71" y2="24.31" xlink:href="#linear-gradient-2"/><linearGradient id="linear-gradient-8" x1="283.67" y1="44.21" x2="297.76" y2="44.21" xlink:href="#linear-gradient-2"/><linearGradient id="linear-gradient-9" x1="200.78" y1="33.49" x2="207.91" y2="33.49" xlink:href="#linear-gradient-2"/><linearGradient id="linear-gradient-10" x1="153.25" y1="41.85" x2="182.52" y2="41.85" xlink:href="#linear-gradient-2"/><linearGradient id="linear-gradient-11" x1="0.39" y1="35.83" x2="35.56" y2="35.83" xlink:href="#linear-gradient-2"/><linearGradient id="linear-gradient-12" x1="54.07" y1="53.29" x2="2.87" y2="53.29" gradientUnits="userSpaceOnUse"><stop offset="0" stop-color="#712d04"/><stop offset="0.06" stop-color="#7c3807"/><stop offset="0.18" stop-color="#8e4a0c"/><stop offset="0.34" stop-color="#9b560f"/><stop offset="0.54" stop-color="#a25d11"/><stop offset="1" stop-color="#a45f12"/></linearGradient></defs><title>Shinda_Swahili</title><path class="cls-1" d="M243.75,57.24l-.51.26a24.86,24.86,0,0,0,5.46-14.75c.23-4,.35-6,.59-10,.43-7.36-1.67-13.54-6.38-18.52S232,6.6,224.25,6.27c-8.65-.37-13-.52-21.64-.78-.61,20.1-1.22,40.88-1.83,61,8.34.25,12.52.4,20.86.76a30,30,0,0,0,7.69-.6h0S239,65,245.1,57.93A41.19,41.19,0,0,0,251,49.1Zm-22.33,0c-3.24-.14-4.86-.2-8.1-.32q.78-20.83,1.58-41.67l8.3.33q6.77.28,10.37,4.87c2.41,3.05,3.48,6.9,3.24,11.56-.21,4-.31,6-.52,10.05q-.37,7.07-4.34,11.27C229.31,56.11,225.81,57.41,221.42,57.22Z"/><path class="cls-2" d="M41.78,53.5a6.93,6.93,0,0,0-2.92-5.4c-1.78-1.28-4.84-2.42-9.12-3.29-7.45-1.52-13.27-3.45-17.29-5.94A13.92,13.92,0,0,1,5.71,27.74Q5,20.36,11.14,15.07c4.1-3.51,9.58-5.56,16.42-6.1s12.68.81,17.27,4,7,7.42,7.15,12.59l-.06.25c-4.85.32-7.27.49-12.11.84a8.62,8.62,0,0,0-3.39-6.55q-3.11-2.37-8.35-2c-3.35.27-5.89,1.2-7.6,2.79a6.67,6.67,0,0,0-2.27,5.72,5.9,5.9,0,0,0,3.36,4.77A39.09,39.09,0,0,0,32,34.78C38.82,36.19,44.3,38.17,48,41a15,15,0,0,1,6,11.61A14.35,14.35,0,0,1,48.7,65.18c-3.9,3.26-9.19,5.13-15.9,5.66a30.43,30.43,0,0,1-17.73-3.6A15.91,15.91,0,0,1,6.54,53.73l.06-.26c4.78-.45,7.18-.66,12-1.08.31,3.58,1.66,6.1,4,7.58S28.1,62,32.07,61.71c3.32-.26,5.81-1.12,7.47-2.61A6.47,6.47,0,0,0,41.78,53.5Z"/><polygon class="cls-3" points="68.97 2.28 72.68 6.86 75.97 67.38 72.13 62.55 68.97 2.28"/><polygon class="cls-4" points="107.2 0.66 110.91 5.24 112.62 66.02 108.78 60.85 107.2 0.66"/><polygon class="cls-5" points="95.98 36.39 97.95 39.94 74.54 40.89 70.82 37.51 95.98 36.39"/><polygon class="cls-6" points="145.53 60.38 141.09 65.56 140.54 3.6 145.12 0.04 145.53 60.38"/><polygon class="cls-7" points="275.52 6.38 281.23 4.56 255.89 63.34 246.66 67.83 275.52 6.38"/><polygon class="cls-8" points="157.74 60.35 153.35 65.56 141.09 65.56 145.53 60.38 157.74 60.35"/><polygon class="cls-8" points="268.19 64.14 260.48 68.94 246.66 67.83 255.87 63.36 268.19 64.14"/><polygon class="cls-8" points="59.88 63.23 64.11 67.72 75.97 67.38 72.13 62.55 59.88 63.23"/><polygon class="cls-8" points="96.91 61.45 100.41 66.25 112.62 66.02 109.09 61.07 96.91 61.45"/><polygon class="cls-9" points="183.71 43.9 178.41 48.41 178.19 4.72 183.49 0.21 183.71 43.9"/><polygon class="cls-10" points="297.76 66.34 293.46 71.26 283.67 21.37 288.25 17.16 297.76 66.34"/><polygon class="cls-11" points="206.08 61.05 200.78 66.23 202.61 5.26 207.91 0.75 206.08 61.05"/><polygon class="cls-12" points="182.53 60.53 179.03 65.56 153.25 20.8 157.62 18.15 182.53 60.53"/><polygon class="cls-8" points="194.68 60.78 191 65.56 179.03 65.56 182.53 60.53 194.68 60.78"/><polygon class="cls-8" points="310 67.53 304.95 72 293.46 71.26 297.74 66.43 310 67.53"/><path class="cls-13" d="M109.06,61.05c-4.86.14-7.29.22-12.15.4-.37-10-.56-15-.93-25.06-10.07.37-15.1.6-25.16,1.12.52,10,.78,15,1.31,25-4.87.25-7.31.39-12.18.68Q58.15,33.11,56.33,3c5.06-.3,7.58-.44,12.64-.71.54,10.37.81,15.55,1.36,25.91,10.12-.52,15.18-.75,25.31-1.12-.39-10.37-.58-15.55-1-25.93,5-.18,7.56-.26,12.6-.41Q108.17,30.9,109.06,61.05Z"/><path class="cls-13" d="M133.39,60.52c-4.87.07-7.31.11-12.19.22q-.66-30.16-1.33-60.33c5.06-.11,7.59-.16,12.64-.23Q133,30.35,133.39,60.52Z"/><path class="cls-13" d="M194.68,60.78c-4.86-.11-7.29-.16-12.15-.23q-12-20.89-24.52-41.44l-.26,0q0,20.6,0,41.2c-4.87,0-7.31,0-12.19,0L145.12,0c5.06,0,7.59,0,12.64,0q12.68,20.55,24.82,41.4l.26,0q.33-20.58.65-41.15c5,.08,7.56.13,12.6.24Z"/><path class="cls-13" d="M206.08,61.09,207.91.77c8.66.26,13,.41,21.64.78,7.71.33,13.95,3,18.66,8s6.81,11.16,6.38,18.52c-.24,4-.36,6-.59,10-.44,7.39-3.23,13.28-8.32,17.69s-11.31,6.44-18.74,6.13C218.6,61.49,214.43,61.34,206.08,61.09ZM220.2,10.51q-.8,20.84-1.58,41.67c3.24.12,4.86.18,8.1.32,4.39.19,7.89-1.11,10.54-3.91s4.09-6.56,4.33-11.27c.21-4,.31-6,.52-10q.36-7-3.23-11.56t-10.37-4.87Z"/><path class="cls-13" d="M294.7,53.1c-8.58-.72-12.87-1.05-21.46-1.66-2,5.07-3.05,7.61-5.05,12.69-4.92-.33-7.38-.49-12.3-.79q12.39-29.52,25.35-58.78c5.17.38,7.76.58,12.92,1q8.23,30.9,15.84,62c-4.91-.46-7.37-.68-12.28-1.1C296.53,61.09,295.92,58.42,294.7,53.1ZM277,42.19c6.2.45,9.3.69,15.5,1.2-2.26-9.7-3.41-14.55-5.75-24.24l-.26,0C282.61,28.34,280.71,33,277,42.19Z"/><polygon class="cls-5" points="119.88 0.41 119.22 4.76 120.66 66.08 121.2 60.74 119.88 0.41"/><polygon class="cls-8" points="133.39 60.52 132.6 65.86 120.66 66.08 121.2 60.74 133.39 60.52"/><path class="cls-5" d="M47.55,21.27"/><path class="cls-5" d="M12.92,47.83l5.64,4.56.11.92c.07.5.28,1.44.41,1.93l.43,1.67.53.77,3.13.88L18,56l-2.85-2.08-.83-1a10.59,10.59,0,0,1-1.28-3.82Z"/><path class="cls-14" d="M.39,25.24A15,15,0,0,0,1.25,28c1.46,3.47,5.07,7,7.38,8.7a38.72,38.72,0,0,0,11.72,5.71c4.17,1.23,7.73,1.93,10.82,2.74s4.39,1.3,4.39,1.3a7.76,7.76,0,0,0-5.19-4.64C26.31,40.5,12.7,37.66,8.22,35.11a15.42,15.42,0,0,1-1.41-.81C.46,29.55.39,25.24.39,25.24Z"/><polygon class="cls-8" points="34.17 22.1 39.81 26.67 51.92 25.83 46.28 21.27 34.17 22.1"/><path class="cls-15" d="M2.87,56.25a16.86,16.86,0,0,0,5,6.29c6.33,5.38,10,6.75,13.88,7.55,15.84,3.27,25.38-3.7,25.38-3.7S55.33,62,53.9,51.05c-.57-4.36-2.4-7.11-5.67-10a72.06,72.06,0,0,0-7-5.4s11.87,8,5.22,21c-1.94,3.8-7.86,8.55-18.46,9.53-8.91.83-13.55-1.06-17.56-3S2.87,56.25,2.87,56.25Z"/><path class="cls-5" d="M33.7,5.66s3.83.79,9,4.59a27,27,0,0,1,6.22,6.56l-3.75-1.35a33.39,33.39,0,0,0-3.07-4.58,9.86,9.86,0,0,0-1.51-1.4A32,32,0,0,0,33.7,5.66Z"/><path class="cls-13" d="M36.14,48.93a7,7,0,0,0-2.92-5.4c-1.78-1.28-4.84-2.41-9.12-3.29C16.66,38.72,10.84,36.8,6.81,34.3A13.91,13.91,0,0,1,.07,23.18Q-.62,15.79,5.5,10.51C9.6,7,15.09,5,21.92,4.41s12.69.8,17.27,4,7,7.42,7.16,12.58l-.07.26c-4.85.31-7.27.48-12.11.83a8.62,8.62,0,0,0-3.39-6.54c-2.07-1.58-4.85-2.24-8.35-2s-5.88,1.2-7.59,2.78a6.71,6.71,0,0,0-2.28,5.73,5.92,5.92,0,0,0,3.36,4.77,39.53,39.53,0,0,0,10.41,3.33c6.85,1.41,12.33,3.4,16.05,6.19a15,15,0,0,1,6,11.6,14.36,14.36,0,0,1-5.36,12.62c-3.9,3.26-9.19,5.13-15.9,5.66a30.51,30.51,0,0,1-17.73-3.6A15.92,15.92,0,0,1,.9,49.16L1,48.91c4.78-.45,7.18-.67,12-1.08.31,3.58,1.66,6.1,4,7.58s5.52,2.05,9.49,1.74q5-.39,7.47-2.61A6.49,6.49,0,0,0,36.14,48.93Z"/><polygon class="cls-5" points="273.22 51.41 271.97 54.61 291.28 56.02 294.7 53.1 273.22 51.41"/></svg>